<svg viewBox="0 0 13.3171 13.3174" xmlns="http://www.w3.org/2000/svg" xmlns:xlink="http://www.w3.org/1999/xlink" width="13.317078" height="13.317383" fill="none" customFrame="#000000">
	<g id="Group">
		<path id="Vector" d="M1.31412 6.66494C1.33744 9.29409 3.2659 11.5337 5.86396 11.9299C8.72437 12.3664 11.437 10.4073 11.915 7.56379C12.0312 6.87301 12.0104 6.18763 11.868 5.5035C11.7843 5.10276 12.0008 4.75945 12.3835 4.67705C12.7404 4.60007 13.0893 4.82936 13.1647 5.21803C13.6552 7.75147 12.9636 9.90956 11.0597 11.654C10.054 12.5753 8.84722 13.108 7.49301 13.2657C5.58454 13.4879 3.87013 12.9935 2.39099 11.7626C1.11799 10.7031 0.338442 9.34111 0.0869219 7.70528C-0.199577 5.84348 0.22101 4.13691 1.36576 2.63424C2.44013 1.22395 3.87096 0.374611 5.62119 0.0874769C6.70139 -0.0897974 7.76785 0.00341722 8.80766 0.35755C9.1916 0.488217 9.38607 0.841517 9.2728 1.20231C9.15787 1.56768 8.78434 1.75119 8.39415 1.62219C7.22858 1.23726 6.05593 1.21271 4.90536 1.64092C2.98231 2.35542 1.81591 3.73783 1.41739 5.75235C1.35785 6.05155 1.34702 6.36074 1.31412 6.66494Z" fill="rgb(47,128,237)" fill-rule="nonzero" />
		<path id="Vector" d="M6.00864 7.09196C6.06611 7.01248 6.0965 6.95547 6.14023 6.91177C7.91627 5.13487 9.6944 3.35921 11.47 1.58189C11.6508 1.40087 11.8536 1.301 12.1138 1.34968C12.6031 1.44082 12.823 2.00718 12.5215 2.40376C12.4807 2.45744 12.4316 2.50446 12.3837 2.55232C10.441 4.49402 8.49843 6.43571 6.5554 8.37699C6.17396 8.75817 5.81917 8.75776 5.43689 8.37533C4.80767 7.74654 4.17804 7.11818 3.54924 6.48856C3.34769 6.28673 3.2769 6.04746 3.3731 5.7753C3.46429 5.51646 3.65626 5.36915 3.92819 5.33628C4.15597 5.30881 4.34336 5.39745 4.50285 5.55766C4.95426 6.01084 5.40816 6.46234 5.85998 6.9151C5.90037 6.95547 5.9341 7.00249 6.00864 7.09196Z" fill="rgb(47,128,237)" fill-rule="nonzero" />
	</g>
</svg>
