<svg width="30" height="30" viewBox="0 0 30 30" fill="none" xmlns="http://www.w3.org/2000/svg">
<path d="M15 20.625C15 20.75 15 20.875 15 21C14.875 23.875 12.375 26.25 9.375 26.25C6.25 26.25 3.75 23.75 3.75 20.625H8.25C8.25 18.75 9.75 17.25 11.625 17.25C13.375 17.25 14.75 18.625 15 20.25C15 20.375 15 20.5 15 20.625Z" stroke="#7B7B7B" stroke-width="1.5" stroke-miterlimit="10" stroke-linecap="round" stroke-linejoin="round"/>
<path d="M15 20.625C15 20.75 15 20.875 15 21C15.125 24 17.625 26.25 20.625 26.25C23.75 26.25 26.25 23.75 26.25 20.625H21.75C21.75 18.75 20.25 17.25 18.375 17.25C16.625 17.25 15.25 18.625 15 20.25C15 20.375 15 20.5 15 20.625Z" stroke="#7B7B7B" stroke-width="1.5" stroke-miterlimit="10" stroke-linecap="round" stroke-linejoin="round"/>
<path d="M8.125 12.5C10.5412 12.5 12.5 10.5412 12.5 8.125C12.5 5.70875 10.5412 3.75 8.125 3.75C5.70875 3.75 3.75 5.70875 3.75 8.125C3.75 10.5412 5.70875 12.5 8.125 12.5Z" stroke="#7B7B7B" stroke-width="1.5" stroke-miterlimit="10" stroke-linecap="round" stroke-linejoin="round"/>
<path d="M21.875 12.5C24.2912 12.5 26.25 10.5412 26.25 8.125C26.25 5.70875 24.2912 3.75 21.875 3.75C19.4588 3.75 17.5 5.70875 17.5 8.125C17.5 10.5412 19.4588 12.5 21.875 12.5Z" stroke="#7B7B7B" stroke-width="1.5" stroke-miterlimit="10" stroke-linecap="round" stroke-linejoin="round"/>
<path d="M12.5 8.75C12.5 7.375 13.625 6.25 15 6.25C16.375 6.25 17.5 7.375 17.5 8.75" stroke="#7B7B7B" stroke-width="1.5" stroke-miterlimit="10" stroke-linecap="round" stroke-linejoin="round"/>
</svg>
