<svg width="32" height="35" viewBox="0 0 32 35" fill="none" xmlns="http://www.w3.org/2000/svg">
<g clip-path="url(#clip0_1_166)">
<path d="M5.84369 32.6908C5.69513 32.5138 5.57957 32.3851 5.46402 32.2483C5.34847 32.1115 5.24117 31.9747 5.10085 31.8057C5.87671 31.1701 6.64431 30.5425 7.44493 29.8827C7.74207 30.2287 8.03095 30.5586 8.31984 30.8885C10.2842 29.3276 11.3903 25.9322 10.9858 23.623C9.42585 23.4299 7.97318 22.9149 6.60304 22.1747C5.55481 21.6115 4.62213 20.9034 3.98659 19.8816C2.73201 17.8701 3.63993 15.4644 5.88496 14.9092C7.23033 14.5793 8.37761 14.9977 9.37632 15.8747C10.1604 16.5667 10.6969 17.4276 11.0188 18.3931C11.4645 19.6965 11.836 21.0322 12.2569 22.4161C12.8099 22.4241 13.4042 22.2149 13.9407 21.869C14.8734 21.2736 15.4099 20.3805 15.8308 19.3988C16.3921 18.0873 16.6397 16.7034 16.8955 15.3195C16.9616 14.9655 17.0193 14.6034 17.1101 14.2494C17.1597 14.0402 17.1266 13.9276 16.9038 13.8552C16.5819 13.7506 16.2683 13.6057 15.9216 13.4609C16.3095 12.5276 16.6809 11.6264 17.0689 10.6931C17.5063 10.8621 17.9108 11.0149 18.2987 11.1678C18.7279 10.7011 19.1323 10.2023 19.5945 9.77585C20.9564 8.51263 22.6154 7.74827 24.3487 7.09654C25.4052 6.70229 26.47 6.32413 27.5099 5.8816C28.4013 5.49539 29.1937 4.94827 29.8375 4.22413C30.7042 3.24252 31.0261 2.13217 30.6134 0.86091C30.4813 0.466658 30.6381 0.144818 30.9848 0.0402207C31.3232 -0.072423 31.6451 0.112634 31.7771 0.498841C32.3549 2.22873 31.9175 3.74137 30.7124 5.077C29.9118 5.97011 28.8883 6.5816 27.7988 7.09654C27.675 7.15286 27.5512 7.21723 27.4109 7.2816C27.5512 7.66781 27.6833 8.03792 27.8318 8.44827C26.8826 8.7862 25.9335 9.12413 24.9513 9.47011C24.8027 9.09195 24.6706 8.73792 24.5055 8.32758C24.0516 8.52873 23.6059 8.70574 23.1684 8.90689C21.5424 9.67126 20.0815 10.6368 19.1571 12.2138C18.6866 13.0184 18.439 13.9034 18.2492 14.8046C17.919 16.3736 17.5806 17.9425 17.2257 19.5759C17.5063 19.7448 17.886 19.9782 18.2904 20.2276C17.7457 21.0724 17.2174 21.9011 16.6644 22.7621C16.293 22.5368 15.9381 22.3276 15.5584 22.1023C14.667 23.0115 13.5775 23.5264 12.2817 23.6471C12.2817 24.0011 12.2899 24.3391 12.2817 24.669C12.1496 28.8046 10.1192 31.7736 6.42971 33.7207C5.01831 34.4609 3.49136 34.8552 1.89012 34.9839C1.8406 34.9919 1.79108 34.9919 1.7333 34.9919C1.28759 35.008 0.990457 34.7988 0.965696 34.4368C0.932681 34.0747 1.21331 33.8172 1.65076 33.7931C2.69899 33.7368 3.72247 33.5356 4.70467 33.1736C5.07609 33.0368 5.431 32.8678 5.84369 32.6908ZM10.8785 22.3678C10.763 21.8529 10.6722 21.3701 10.5401 20.9034C10.1852 19.6402 9.83028 18.377 9.02141 17.3069C8.61697 16.7759 8.13 16.3333 7.46144 16.1161C6.09131 15.6655 4.67991 16.5586 4.63039 17.9345C4.59737 18.6425 4.91927 19.2218 5.38148 19.7368C6.17385 20.6138 7.19732 21.169 8.27857 21.6276C9.09569 21.9736 9.92933 22.2552 10.8785 22.3678Z" fill="#7B7B7B"/>
<path d="M23.5399 26.8092C21.5259 26.6885 19.7431 26.1333 18.3977 24.6046C18.3895 24.5965 18.3812 24.5885 18.373 24.5724C17.6301 23.6471 17.6219 23.5345 18.2492 22.5529C18.5463 22.0943 18.8599 21.6517 19.1241 21.177C19.2809 20.8954 19.4955 20.8391 19.7844 20.8471C20.9069 20.8713 21.8973 21.2575 22.7805 21.9092C23.9938 22.8023 24.8935 23.9207 25.3309 25.3609C25.5868 26.2057 25.3474 26.5598 24.4643 26.7046C24.1506 26.7529 23.8287 26.777 23.5399 26.8092Z" fill="#7B7B7B"/>
<path d="M25.1493 11.9322C25.1493 11.9081 25.1493 11.8839 25.1493 11.8598C25.1659 10.6931 25.1906 10.6609 26.3131 10.2586C26.8414 10.0736 27.3861 9.89656 27.9061 9.68736C28.1702 9.58277 28.3518 9.63104 28.5664 9.79196C29.5981 10.5805 30.1264 11.6345 30.3988 12.8494C30.6711 14.0885 30.6464 15.3195 30.2172 16.5264C29.854 17.5563 29.3835 17.7494 28.4509 17.1701C26.4782 15.9552 25.3392 14.2172 25.1493 11.9322Z" fill="#7B7B7B"/>
<path d="M13.3547 13.1874C10.9858 12.8897 9.15347 11.6667 7.99794 9.5023C7.62652 8.81035 7.8081 8.43219 8.56745 8.15862C10.0944 7.6115 11.6214 7.67586 13.1483 8.16667C14.2048 8.5046 15.1045 9.07586 15.7235 9.99311C15.806 10.1218 15.8391 10.3471 15.7813 10.492C15.5006 11.2241 15.1705 11.9322 14.8981 12.6563C14.7908 12.9299 14.6422 13.0667 14.3534 13.0908C14.0727 13.123 13.7756 13.1552 13.3547 13.1874Z" fill="#7B7B7B"/>
<path d="M5.10132e-07 25.1034C-0.0247609 23.8885 0.330153 23.5747 1.55997 23.8483C3.41708 24.2506 4.86975 25.2483 5.92623 26.7851C6.11607 27.0586 6.25638 27.3805 6.37194 27.6943C6.78463 28.7885 6.75161 28.877 5.83544 29.6172C5.38974 29.9793 4.96054 30.3575 4.49832 30.6954C4.37452 30.792 4.14341 30.8322 3.98659 30.792C3.02915 30.5345 2.25329 29.9954 1.626 29.2391C0.62729 28 0.0330157 26.5195 5.10132e-07 25.1034Z" fill="#7B7B7B"/>
</g>
<defs>
<clipPath id="clip0_1_166">
<rect width="32" height="35" fill="white"/>
</clipPath>
</defs>
</svg>
