<svg width="25" height="26" viewBox="0 0 25 26" fill="none" xmlns="http://www.w3.org/2000/svg">
<g clip-path="url(#clip0_1_363)">
<path d="M12.2816 0C12.4277 0 12.5737 0 12.7197 0C13.301 0.205156 13.5207 0.597188 13.4988 1.16729C13.4689 1.92766 13.4908 2.69005 13.4923 3.45177C13.4923 3.52219 13.5025 3.5926 13.5113 3.69281C13.6149 3.62443 13.6894 3.57839 13.761 3.52896C14.4693 3.0374 15.1717 2.53839 15.8873 2.05495C16.4743 1.65818 17.2556 1.89786 17.4579 2.52281C17.5857 2.91891 17.4331 3.29807 17.0212 3.58516C15.9128 4.35703 14.8044 5.12958 13.6902 5.89536C13.5427 5.99693 13.4872 6.10391 13.4879 6.27385C13.4945 7.88193 13.4915 9.48932 13.4923 11.0974C13.4923 11.1685 13.5003 11.2403 13.5054 11.3344C13.5741 11.3046 13.6157 11.291 13.6529 11.2707C15.1929 10.4135 16.7336 9.55771 18.2684 8.6924C18.3494 8.64635 18.4166 8.52583 18.4276 8.43375C18.5583 7.34094 18.6736 6.24677 18.8022 5.15396C18.8409 4.8276 18.862 4.48974 18.9752 4.18438C19.1315 3.76255 19.6594 3.55807 20.1267 3.67182C20.6189 3.79167 20.9212 4.225 20.8642 4.72198C20.7634 5.60354 20.6656 6.4851 20.5619 7.40797C20.6758 7.34974 20.7539 7.3125 20.8299 7.27052C21.5805 6.85344 22.3297 6.43297 23.0818 6.01792C23.633 5.71391 24.2398 5.8351 24.5341 6.30161C24.8254 6.76339 24.6568 7.30167 24.1172 7.60635C23.533 7.93609 22.9452 8.25906 22.3589 8.58609C22.1187 8.72016 21.8799 8.85625 21.6126 9.00792C21.7295 9.05667 21.8098 9.09255 21.8916 9.1237C22.7094 9.4338 23.5308 9.73646 24.345 10.054C24.8773 10.2619 25.1117 10.7656 24.9204 11.2423C24.7166 11.7501 24.1296 11.9708 23.5403 11.7501C22.2391 11.2633 20.9423 10.7677 19.6382 10.2869C19.5338 10.2483 19.3666 10.2605 19.2702 10.3133C17.7178 11.1678 16.1728 12.0331 14.6262 12.8964C14.5759 12.9248 14.5321 12.9621 14.4693 13.0068C14.5686 13.065 14.643 13.111 14.7204 13.1537C16.2202 13.9906 17.7222 14.8247 19.2176 15.6677C19.3834 15.7611 19.5126 15.7706 19.693 15.7009C20.9803 15.2059 22.272 14.7198 23.5644 14.2364C24.1712 14.0095 24.7729 14.2628 24.9532 14.8085C25.1095 15.2804 24.8605 15.7449 24.3216 15.9528C23.4315 16.296 22.5378 16.6298 21.6053 16.9833C21.7207 17.051 21.8025 17.1018 21.8872 17.1485C22.6217 17.5581 23.3578 17.9651 24.0894 18.3781C24.2128 18.4478 24.3362 18.5284 24.4304 18.6279C24.748 18.9617 24.7458 19.4736 24.4399 19.8176C24.1274 20.169 23.6017 20.2597 23.1548 20.0159C22.3837 19.5968 21.6214 19.1648 20.8547 18.739C20.7707 18.6922 20.6838 18.6516 20.586 18.6015C20.5794 18.6516 20.5714 18.676 20.5743 18.6997C20.67 19.5576 20.7656 20.4154 20.8642 21.2733C20.9328 21.8752 20.4852 22.3553 19.8565 22.3498C19.2914 22.3451 18.9175 21.9707 18.8547 21.3748C18.7197 20.104 18.578 18.8338 18.4254 17.5649C18.413 17.462 18.3188 17.3333 18.2224 17.2785C16.727 16.4355 15.2243 15.602 13.723 14.7679C13.658 14.7313 13.5865 14.7049 13.5113 14.6704C13.501 14.7164 13.4945 14.7327 13.4945 14.7489C13.4937 16.4328 13.4901 18.1167 13.4996 19.8006C13.5003 19.8954 13.5872 20.0173 13.6741 20.0803C14.1188 20.4039 14.5766 20.7127 15.0286 21.0275C15.7288 21.515 16.432 21.9991 17.1264 22.4941C17.4455 22.7216 17.5514 23.0432 17.4761 23.4007C17.4046 23.7406 17.1768 23.9782 16.819 24.0879C16.4641 24.1963 16.1392 24.1265 15.8413 23.9173C15.1505 23.4318 14.4554 22.9518 13.7617 22.4704C13.6858 22.4176 13.6062 22.3702 13.4923 22.297C13.4923 23.1759 13.4704 24.0046 13.4996 24.8314C13.52 25.4015 13.301 25.7935 12.7205 25.9986C12.5744 25.9986 12.4284 25.9986 12.2824 25.9986C11.6931 25.8043 11.4675 25.4143 11.4886 24.8415C11.5164 24.0893 11.496 23.3357 11.4945 22.5821C11.4945 22.5015 11.4857 22.4216 11.4784 22.3079C11.3791 22.3708 11.3119 22.4108 11.2484 22.4548C10.5328 22.9518 9.82237 23.4548 9.10095 23.9444C8.57741 24.2992 7.89104 24.1522 7.60043 23.6404C7.36385 23.2233 7.49382 22.7473 7.94507 22.4318C9.05933 21.6524 10.1751 20.8745 11.2966 20.104C11.4456 20.0017 11.4996 19.8947 11.4989 19.7248C11.4923 18.1255 11.4952 16.5263 11.4945 14.9263C11.4945 14.8457 11.4857 14.7658 11.4792 14.6602C11.3747 14.7123 11.3017 14.7448 11.2331 14.7834C9.77199 15.598 8.31382 16.4172 6.84615 17.2223C6.63074 17.3408 6.55115 17.4762 6.52852 17.7003C6.39855 18.9719 6.25762 20.2421 6.10647 21.5116C6.04003 22.0695 5.58293 22.4297 5.03895 22.3864C4.45991 22.3404 4.08022 21.9104 4.12403 21.3247C4.15615 20.9029 4.21603 20.4831 4.26203 20.0627C4.31387 19.588 4.36353 19.1134 4.41829 18.5941C4.28102 18.6645 4.19339 18.7058 4.10942 18.7525C3.37413 19.1615 2.64979 19.5867 1.89989 19.9713C1.67645 20.0857 1.38 20.1439 1.1259 20.1249C0.716263 20.0938 0.411777 19.7742 0.338028 19.4133C0.256248 19.0125 0.416158 18.6523 0.800964 18.4343C1.57058 17.9976 2.34749 17.571 3.12076 17.1397C3.19962 17.0957 3.27409 17.0463 3.37632 16.9833C3.23977 16.9298 3.1485 16.8926 3.05577 16.8573C2.25403 16.5547 1.45083 16.2568 0.652007 15.948C0.0393834 15.711 -0.181862 15.0807 0.161324 14.583C0.432222 14.1896 0.928746 14.0535 1.43768 14.2445C2.73011 14.7279 4.0218 15.2141 5.31057 15.7056C5.4661 15.7645 5.58366 15.7727 5.737 15.6867C7.25724 14.8315 8.78259 13.9852 10.3065 13.1361C10.3744 13.0982 10.4386 13.0548 10.5263 13C10.4642 12.9587 10.424 12.9282 10.3802 12.9032C8.81691 12.0324 7.25505 11.1604 5.68589 10.2984C5.59827 10.2504 5.44128 10.2517 5.34197 10.289C4.03056 10.7744 2.72573 11.2741 1.41505 11.7623C0.857188 11.9702 0.284725 11.7481 0.073702 11.2613C-0.138051 10.7717 0.111672 10.2605 0.672452 10.0418C0.932397 9.94026 1.19599 9.84479 1.4574 9.74594C2.08755 9.5076 2.71696 9.26859 3.3807 9.0174C3.26533 8.94766 3.18355 8.8962 3.09958 8.8488C2.36575 8.43849 1.62899 8.03224 0.898078 7.61787C0.760074 7.54 0.622069 7.44521 0.522764 7.3301C0.22704 6.98885 0.253327 6.48917 0.563655 6.16214C0.887856 5.82021 1.38584 5.73964 1.82979 5.98068C2.60086 6.39979 3.36318 6.83177 4.12987 7.25766C4.20946 7.30167 4.2927 7.34161 4.41391 7.40391C4.39638 7.20891 4.38616 7.06672 4.37083 6.92453C4.28832 6.17568 4.19266 5.42818 4.12549 4.67797C4.07437 4.10583 4.44969 3.68943 5.0258 3.63323C5.57271 3.57974 6.0393 3.93318 6.10647 4.48906C6.25835 5.74979 6.39855 7.01188 6.52706 8.27464C6.55188 8.51568 6.63585 8.66328 6.87024 8.79193C8.33134 9.59021 9.78075 10.4068 11.2345 11.2159C11.3068 11.2558 11.3842 11.2877 11.4704 11.3283C11.4828 11.2714 11.493 11.2477 11.493 11.2233C11.4945 9.54755 11.4974 7.87245 11.4872 6.19667C11.4865 6.10187 11.3988 5.97865 11.3112 5.91703C10.2006 5.13365 9.08124 4.36109 7.96625 3.58177C7.44782 3.21953 7.33829 2.66635 7.68878 2.22896C8.03489 1.79698 8.64897 1.7401 9.16813 2.09828C9.87787 2.58781 10.5847 3.08208 11.2937 3.57297C11.3463 3.60953 11.4069 3.63526 11.4952 3.68266C11.4952 2.81328 11.5157 1.98453 11.4879 1.15714C11.4697 0.585 11.6916 0.194323 12.2816 0Z" fill="#333333"/>
</g>
<defs>
<clipPath id="clip0_1_363">
<rect width="25" height="26" fill="white"/>
</clipPath>
</defs>
</svg>
