<svg viewBox="0 0 65.9109 9.74463" xmlns="http://www.w3.org/2000/svg" xmlns:xlink="http://www.w3.org/1999/xlink" width="65.910919" height="9.744629" fill="none" customFrame="#000000">
	<g id="Group 9134">
		<g id="Group">
			<path id="Vector" d="M5.12386 7.55434e-06C5.31547 -0.00089207 5.42639 0.0785747 5.50104 0.229712C5.94109 1.12004 6.38537 2.00857 6.82603 2.8986C6.85715 2.96127 6.89101 2.99246 6.96626 3.00295C7.94881 3.1412 8.93046 3.28454 9.91271 3.42578C10.1859 3.46506 10.3346 3.6138 10.2947 3.8399C10.279 3.92807 10.2219 4.02223 10.1563 4.0864C9.44365 4.78391 8.72615 5.47632 8.00835 6.16843C7.95788 6.21701 7.93884 6.25899 7.95214 6.33366C8.12592 7.32205 8.29426 8.31104 8.46533 9.29972C8.49223 9.45506 8.45143 9.5837 8.32267 9.67577C8.19332 9.76813 8.05671 9.76243 7.91738 9.68956C7.02973 9.22565 6.14056 8.76415 5.25412 8.29814C5.17735 8.25766 5.12235 8.26036 5.04709 8.29994C4.16699 8.76205 3.28206 9.21576 2.40468 9.68236C2.13026 9.8284 1.85432 9.67127 1.83075 9.41997C1.8253 9.3615 1.83528 9.30032 1.84555 9.24185C2.01239 8.27145 2.17922 7.30106 2.35089 6.33126C2.36418 6.25629 2.34333 6.21491 2.29316 6.16663C1.57536 5.47452 0.857862 4.78211 0.144596 4.0855C0.0811278 4.02343 0.0258195 3.93466 0.0079878 3.8498C-0.0340224 3.64948 0.0941238 3.47705 0.302361 3.44377C0.701004 3.3802 1.10086 3.32502 1.50041 3.26744C2.10517 3.18018 2.70994 3.09172 3.31531 3.00835C3.39993 2.99666 3.44436 2.96427 3.48214 2.8875C3.91977 2.00017 4.36314 1.11554 4.80138 0.228512C4.87391 0.0812736 4.98151 0.00270643 5.12386 7.55434e-06Z" fill="rgb(196,196,196)" fill-rule="nonzero" />
		</g>
		<g id="Group">
			<path id="Vector" d="M19.0263 7.55434e-06C19.2179 -0.00089207 19.3288 0.0785747 19.4035 0.229712C19.8435 1.12004 20.2878 2.00857 20.7285 2.8986C20.7596 2.96127 20.7934 2.99246 20.8687 3.00295C21.8512 3.1412 22.8329 3.28454 23.8151 3.42578C24.0884 3.46506 24.2371 3.6138 24.1972 3.8399C24.1815 3.92807 24.1243 4.02223 24.0587 4.0864C23.3461 4.78391 22.6286 5.47632 21.9108 6.16843C21.8603 6.21701 21.8413 6.25899 21.8546 6.33366C22.0284 7.32205 22.1967 8.31104 22.3678 9.29972C22.3947 9.45506 22.3539 9.5837 22.2251 9.67577C22.0958 9.76813 21.9591 9.76243 21.8198 9.68956C20.9322 9.22565 20.043 8.76415 19.1566 8.29814C19.0798 8.25766 19.0248 8.26036 18.9495 8.29994C18.0694 8.76205 17.1845 9.21576 16.3071 9.68236C16.0327 9.8284 15.7568 9.67127 15.7332 9.41997C15.7277 9.3615 15.7377 9.30032 15.748 9.24185C15.9148 8.27145 16.0817 7.30106 16.2533 6.33126C16.2666 6.25629 16.2458 6.21491 16.1956 6.16663C15.4778 5.47452 14.7603 4.78211 14.047 4.0855C13.9836 4.02343 13.9283 3.93466 13.9104 3.8498C13.8684 3.64948 13.9966 3.47705 14.2048 3.44377C14.6034 3.3802 15.0033 3.32502 15.4028 3.26744C16.0076 3.18018 16.6124 3.09172 17.2177 3.00835C17.3024 2.99666 17.3468 2.96427 17.3846 2.8875C17.8222 2.00017 18.2656 1.11554 18.7038 0.228512C18.7763 0.0812736 18.8839 0.00270643 19.0263 7.55434e-06Z" fill="rgb(196,196,196)" fill-rule="nonzero" />
		</g>
		<g id="Group">
			<path id="Vector" d="M32.9287 7.55434e-06C33.1203 -0.00089207 33.2313 0.0785747 33.3059 0.229712C33.746 1.12004 34.1902 2.00857 34.6309 2.8986C34.662 2.96127 34.6959 2.99246 34.7711 3.00295C35.7537 3.1412 36.7353 3.28454 37.7176 3.42578C37.9908 3.46506 38.1395 3.6138 38.0996 3.8399C38.0839 3.92807 38.0268 4.02223 37.9612 4.0864C37.2485 4.78391 36.531 5.47632 35.8132 6.16843C35.7628 6.21701 35.7437 6.25899 35.757 6.33366C35.9308 7.32205 36.0991 8.31104 36.2702 9.29972C36.2971 9.45506 36.2563 9.5837 36.1275 9.67577C35.9982 9.76813 35.8616 9.76243 35.7223 9.68956C34.8346 9.22565 33.9454 8.76415 33.059 8.29814C32.9822 8.25766 32.9272 8.26036 32.852 8.29994C31.9719 8.76205 31.0869 9.21576 30.2096 9.68236C29.9351 9.8284 29.6592 9.67127 29.6356 9.41997C29.6302 9.3615 29.6402 9.30032 29.6504 9.24185C29.8173 8.27145 29.9841 7.30106 30.1558 6.33126C30.1691 6.25629 30.1482 6.21491 30.098 6.16663C29.3802 5.47452 28.6627 4.78211 27.9495 4.0855C27.886 4.02343 27.8307 3.93466 27.8129 3.8498C27.7708 3.64948 27.899 3.47705 28.1072 3.44377C28.5059 3.3802 28.9057 3.32502 29.3053 3.26744C29.91 3.18018 30.5148 3.09172 31.1202 3.00835C31.2048 2.99666 31.2492 2.96427 31.287 2.8875C31.7246 2.00017 32.168 1.11554 32.6062 0.228512C32.6788 0.0812736 32.7864 0.00270643 32.9287 7.55434e-06Z" fill="rgb(196,196,196)" fill-rule="nonzero" />
		</g>
		<g id="Group">
			<path id="Vector" d="M46.8312 7.55434e-06C47.0228 -0.00089207 47.1337 0.0785747 47.2083 0.229712C47.6484 1.12004 48.0927 2.00857 48.5333 2.8986C48.5645 2.96127 48.5983 2.99246 48.6736 3.00295C49.6561 3.1412 50.6378 3.28454 51.62 3.42578C51.8932 3.46506 52.0419 3.6138 52.002 3.8399C51.9863 3.92807 51.9292 4.02223 51.8636 4.0864C51.151 4.78391 50.4335 5.47632 49.7157 6.16843C49.6652 6.21701 49.6461 6.25899 49.6594 6.33366C49.8332 7.32205 50.0016 8.31104 50.1726 9.29972C50.1995 9.45506 50.1587 9.5837 50.03 9.67577C49.9006 9.76813 49.764 9.76243 49.6247 9.68956C48.737 9.22565 47.8479 8.76415 46.9614 8.29814C46.8847 8.25766 46.8297 8.26036 46.7544 8.29994C45.8743 8.76205 44.9894 9.21576 44.112 9.68236C43.8376 9.8284 43.5616 9.67127 43.5381 9.41997C43.5326 9.3615 43.5426 9.30032 43.5529 9.24185C43.7197 8.27145 43.8865 7.30106 44.0582 6.33126C44.0715 6.25629 44.0506 6.21491 44.0005 6.16663C43.2827 5.47452 42.5652 4.78211 41.8519 4.0855C41.7884 4.02343 41.7331 3.93466 41.7153 3.8498C41.6733 3.64948 41.8014 3.47705 42.0097 3.44377C42.4083 3.3802 42.8082 3.32502 43.2077 3.26744C43.8125 3.18018 44.4172 3.09172 45.0226 3.00835C45.1072 2.99666 45.1517 2.96427 45.1894 2.8875C45.6271 2.00017 46.0704 1.11554 46.5087 0.228512C46.5812 0.0812736 46.6888 0.00270643 46.8312 7.55434e-06Z" fill="rgb(196,196,196)" fill-rule="nonzero" />
		</g>
		<g id="Group">
			<path id="Vector" d="M60.7336 7.55434e-06C60.9252 -0.00089207 61.0361 0.0785747 61.1108 0.229712C61.5508 1.12004 61.9951 2.00857 62.4358 2.8986C62.4669 2.96127 62.5007 2.99246 62.576 3.00295C63.5586 3.1412 64.5402 3.28454 65.5225 3.42578C65.7957 3.46506 65.9444 3.6138 65.9045 3.8399C65.8888 3.92807 65.8316 4.02223 65.7661 4.0864C65.0534 4.78391 64.3359 5.47632 63.6181 6.16843C63.5676 6.21701 63.5486 6.25899 63.5619 6.33366C63.7357 7.32205 63.904 8.31104 64.0751 9.29972C64.102 9.45506 64.0612 9.5837 63.9324 9.67577C63.8031 9.76813 63.6665 9.76243 63.5271 9.68956C62.6395 9.22565 61.7503 8.76415 60.8639 8.29814C60.7871 8.25766 60.7321 8.26036 60.6568 8.29994C59.7767 8.76205 58.8918 9.21576 58.0144 9.68236C57.74 9.8284 57.4641 9.67127 57.4405 9.41997C57.435 9.3615 57.445 9.30032 57.4553 9.24185C57.6221 8.27145 57.789 7.30106 57.9606 6.33126C57.9739 6.25629 57.9531 6.21491 57.9029 6.16663C57.1851 5.47452 56.4676 4.78211 55.7543 4.0855C55.6909 4.02343 55.6356 3.93466 55.6177 3.8498C55.5757 3.64948 55.7039 3.47705 55.9121 3.44377C56.3107 3.3802 56.7106 3.32502 57.1101 3.26744C57.7149 3.18018 58.3197 3.09172 58.925 3.00835C59.0097 2.99666 59.0541 2.96427 59.0919 2.8875C59.5295 2.00017 59.9729 1.11554 60.4111 0.228512C60.4837 0.0812736 60.5912 0.00270643 60.7336 7.55434e-06Z" fill="rgb(196,196,196)" fill-rule="nonzero" />
		</g>
	</g>
</svg>
