<svg width="35" height="35" viewBox="0 0 35 35" fill="none" xmlns="http://www.w3.org/2000/svg">
<path d="M18.2292 26.25V20.4167" stroke="#7B7B7B" stroke-width="1.5" stroke-miterlimit="10" stroke-linecap="round" stroke-linejoin="round"/>
<path d="M14.5833 20.4167H21.875L18.2292 10.2083L14.5833 20.4167Z" stroke="#7B7B7B" stroke-width="1.5" stroke-miterlimit="10" stroke-linecap="round" stroke-linejoin="round"/>
<path d="M29.1667 15.3125C29.1667 19.6875 26.5417 23.4792 22.75 25.2292C21.2917 25.9583 19.8333 26.25 18.2292 26.25C16.625 26.25 15.0208 25.9583 13.7083 25.2292C12.5417 24.6458 11.5208 23.9167 10.5 23.0417C8.45833 21 7.29167 18.375 7.29167 15.3125C7.29167 13.4167 7.72917 11.8125 8.60417 10.2083C10.3542 6.70833 14.1458 4.375 18.2292 4.375C18.6667 4.375 19.25 4.375 19.6875 4.52083C24.0625 5.10417 27.7083 8.3125 28.7292 12.5417C29.0208 13.4167 29.1667 14.2917 29.1667 15.3125Z" stroke="#7B7B7B" stroke-width="1.5" stroke-miterlimit="10" stroke-linecap="round" stroke-linejoin="round"/>
<path d="M23.4792 24.9375L25.5208 30.625H10.9375L12.9792 24.9375" stroke="#7B7B7B" stroke-width="1.5" stroke-miterlimit="10" stroke-linecap="round" stroke-linejoin="round"/>
</svg>
